<svg id="layer1" xmlns="http://www.w3.org/2000/svg" viewBox="0 0 512 512"><path d="M111.78,276.92v175.34c0,10.45,8.45,18.89,18.89,18.89s18.89-8.44,18.89-18.89v-175.34c0-10.43-8.46-18.89-18.89-18.89-10.45,0-18.89,8.45-18.89,18.89Z" fill="white" /><path d="M52.48,471.37h41.6v-208.18c.11-1,.3-1.99,.3-3.02,0-89.81,72.49-162.87,161.59-162.87s161.57,73.06,161.57,162.87c0,1.37,.2,2.7,.41,4.03v207.16h41.61c28.96,0,52.45-24.3,52.45-54.28v-108.56c0-24.72-16.01-45.55-37.88-52.11-2.01-119.31-99.07-215.79-218.15-215.79S39.78,137.11,37.79,256.47C15.96,263.03,0,283.84,0,308.55v108.54c0,29.96,23.49,54.28,52.48,54.28Z" fill="white" /><path d="M362.47,276.92v175.34c0,10.45,8.46,18.89,18.89,18.89s18.89-8.44,18.89-18.89v-175.34c0-10.43-8.46-18.89-18.89-18.89-10.45,0-18.89,8.45-18.89,18.89Z" fill="white" /></svg>